<svg xmlns="http://www.w3.org/2000/svg" viewBox="0 0 30 40"><defs><style>.a{fill:#1699e0;}</style></defs><g transform="translate(0)"><path class="a" d="M91.741,28.409a13.15,13.15,0,0,0,.592-3.872,13.366,13.366,0,0,0-.687-4.233L89.768,14.67a5.766,5.766,0,0,0-4.064-3.8c-.69-.173-1.568-.357-2.537-.513V8.333H84a1.668,1.668,0,0,0,1.667-1.667V3.333A3.337,3.337,0,0,0,82.333,0H75.667a3.337,3.337,0,0,0-3.333,3.333V6.667A1.668,1.668,0,0,0,74,8.333h.833v2.022c-.969.157-1.847.34-2.537.513a5.766,5.766,0,0,0-4.064,3.8L66.354,20.3a13.369,13.369,0,0,0-.687,4.233,13.149,13.149,0,0,0,.592,3.872A2.9,2.9,0,0,0,64,31.226a22.04,22.04,0,0,0,.843,6.038l.366.916A2.877,2.877,0,0,0,67.895,40H90.227a2.879,2.879,0,0,0,2.588-1.6A19.5,19.5,0,0,0,94,31.713v-.487A2.9,2.9,0,0,0,91.741,28.409ZM71.1,21.886l1.878-5.637a.8.8,0,0,1,.539-.531,21.31,21.31,0,0,1,10.968,0,.806.806,0,0,1,.54.533L86.9,21.886a8.354,8.354,0,0,1,.431,2.651,8.445,8.445,0,0,1-.881,3.744L85.2,30.747a26.1,26.1,0,0,0-12.4,0l-1.248-2.458a8.447,8.447,0,0,1-.885-3.752A8.357,8.357,0,0,1,71.1,21.886Zm16.5,13.9c-.107.036-2.7.876-8.6.876s-8.49-.841-8.6-.876a.833.833,0,0,1,.524-1.581A29.674,29.674,0,0,0,79,35a29.674,29.674,0,0,0,8.073-.791A.833.833,0,0,1,87.6,35.79Z" transform="translate(-64)"/></g></svg>