<svg xmlns="http://www.w3.org/2000/svg" viewBox="0 0 30 40">
    <defs>
        <style>.a{fill:#7e929b;}</style>
    </defs>
    <g transform="translate(0)">
        <path class="a"
              d="M91.741,28.409a13.15,13.15,0,0,0,.592-3.872,13.366,13.366,0,0,0-.687-4.233L89.768,14.67a5.766,5.766,0,0,0-4.064-3.8c-.69-.173-1.568-.357-2.537-.513V8.333H84a1.668,1.668,0,0,0,1.667-1.667V3.333A3.337,3.337,0,0,0,82.333,0H75.667a3.337,3.337,0,0,0-3.333,3.333V6.667A1.668,1.668,0,0,0,74,8.333h.833v2.022c-.969.157-1.847.34-2.537.513a5.766,5.766,0,0,0-4.064,3.8L66.354,20.3a13.369,13.369,0,0,0-.687,4.233,13.149,13.149,0,0,0,.592,3.872A2.9,2.9,0,0,0,64,31.226a22.04,22.04,0,0,0,.843,6.038l.366.916A2.877,2.877,0,0,0,67.895,40H90.227a2.879,2.879,0,0,0,2.588-1.6A19.5,19.5,0,0,0,94,31.713v-.487A2.9,2.9,0,0,0,91.741,28.409ZM74,6.667h0V3.333a1.668,1.668,0,0,1,1.667-1.667h6.667A1.668,1.668,0,0,1,84,3.333V6.667Zm7.5,1.667v1.808a22.122,22.122,0,0,0-5,0V8.333h5Zm-13.564,12.5L69.814,15.2A4.1,4.1,0,0,1,72.7,12.485a24.628,24.628,0,0,1,12.594,0A4.1,4.1,0,0,1,88.186,15.2l1.878,5.635a11.467,11.467,0,0,1-.165,7.792,2.86,2.86,0,0,0-1.381,1.309l-.767,1.532c-.242-.082-.558-.18-.9-.283L87.94,29.03a10.053,10.053,0,0,0,.544-7.672l-1.878-5.633A2.476,2.476,0,0,0,84.89,14.1a22.973,22.973,0,0,0-11.782,0,2.477,2.477,0,0,0-1.714,1.62l-1.878,5.636a10.052,10.052,0,0,0,.549,7.681l1.089,2.143c-.347.1-.663.2-.9.283l-.767-1.533A2.86,2.86,0,0,0,68.1,28.624a11.467,11.467,0,0,1-.165-7.792ZM86.453,28.28,85.2,30.747a26.1,26.1,0,0,0-12.4,0l-1.248-2.458a8.447,8.447,0,0,1-.885-3.752,8.354,8.354,0,0,1,.431-2.651l1.878-5.637a.8.8,0,0,1,.539-.531,21.309,21.309,0,0,1,10.968,0,.806.806,0,0,1,.54.533L86.9,21.886a8.354,8.354,0,0,1,.431,2.651A8.446,8.446,0,0,1,86.453,28.28Zm5.881,3.433a17.887,17.887,0,0,1-1.009,5.942,1.222,1.222,0,0,1-1.1.679H67.895a1.221,1.221,0,0,1-1.139-.771l-.366-.917a20.534,20.534,0,0,1-.723-5.419,1.227,1.227,0,0,1,2.324-.549l1.1,2.195a.834.834,0,0,0,1.055.4,25.21,25.21,0,0,1,17.715,0,.839.839,0,0,0,1.055-.4l1.1-2.194a1.227,1.227,0,0,1,2.324.548Z"
              transform="translate(-64)"/>
    </g>
    <g transform="translate(6.925 34.861)">
        <path class="a"
              d="M154.794,437.84a.735.735,0,0,0-.925-.467,26.141,26.141,0,0,1-7.113.7,26.141,26.141,0,0,1-7.113-.7.734.734,0,0,0-.462,1.393,26.576,26.576,0,0,0,7.574.772,26.574,26.574,0,0,0,7.574-.772A.731.731,0,0,0,154.794,437.84Z"
              transform="translate(-138.681 -437.335)"/>
    </g>
</svg>
